<svg xmlns="http://www.w3.org/2000/svg" width="1024" height="1024" viewBox="0 0 1024 1024">
  <defs><linearGradient id="side" gradientUnits="userSpaceOnUse" x1="464.20" y1="0" x2="559.80" y2="0"><stop offset="0" stop-color="#5DB85A"/><stop offset="1" stop-color="#43994A"/></linearGradient></defs>
  <polygon points="872.8,645.8 872.3,649.2 871.3,652.5 870.0,655.8 868.3,659.1 866.2,662.3 863.7,665.4 861.0,668.4 857.8,671.3 854.4,674.1 850.7,676.7 846.6,679.2 575.7,835.6 571.4,837.9 566.9,840.1 562.1,842.1 557.1,843.8 551.9,845.5 546.5,846.9 541.0,848.1 535.3,849.0 529.6,849.8 523.8,850.4 517.9,850.7 512.0,850.8 506.1,850.7 500.2,850.4 494.4,849.8 488.7,849.0 483.0,848.1 477.5,846.9 472.1,845.5 466.9,843.8 461.9,842.1 457.1,840.1 452.6,837.9 448.3,835.6 177.4,679.2 173.3,676.7 169.6,674.1 166.2,671.3 163.0,668.4 160.3,665.4 157.8,662.3 155.7,659.1 154.0,655.8 152.7,652.5 151.7,649.2 151.2,645.8 151.2,691.8 151.7,695.2 152.7,698.5 154.0,701.8 155.7,705.1 157.8,708.3 160.3,711.4 163.0,714.4 166.2,717.3 169.6,720.1 173.3,722.7 177.4,725.2 448.3,881.6 452.6,883.9 457.1,886.1 461.9,888.1 466.9,889.8 472.1,891.5 477.5,892.9 483.0,894.1 488.7,895.0 494.4,895.8 500.2,896.4 506.1,896.7 512.0,896.8 517.9,896.7 523.8,896.4 529.6,895.8 535.3,895.0 541.0,894.1 546.5,892.9 551.9,891.5 557.1,889.8 562.1,888.1 566.9,886.1 571.4,883.9 575.7,881.6 846.6,725.2 850.7,722.7 854.4,720.1 857.8,717.3 861.0,714.4 863.7,711.4 866.2,708.3 868.3,705.1 870.0,701.8 871.3,698.5 872.3,695.2 872.8,691.8" fill="url(#side)"/>
  <polygon points="846.6,605.6 850.7,608.1 854.4,610.7 857.8,613.5 861.0,616.4 863.7,619.4 866.2,622.5 868.3,625.6 870.0,628.9 871.3,632.2 872.3,635.6 872.8,639.0 873.0,642.4 872.8,645.8 872.3,649.2 871.3,652.5 870.0,655.8 868.3,659.1 866.2,662.3 863.7,665.4 861.0,668.4 857.8,671.3 854.4,674.1 850.7,676.7 846.6,679.2 575.7,835.6 571.4,837.9 566.9,840.1 562.1,842.1 557.1,843.8 551.9,845.5 546.5,846.9 541.0,848.1 535.3,849.0 529.6,849.8 523.8,850.4 517.9,850.7 512.0,850.8 506.1,850.7 500.2,850.4 494.4,849.8 488.7,849.0 483.0,848.1 477.5,846.9 472.1,845.5 466.9,843.8 461.9,842.1 457.1,840.1 452.6,837.9 448.3,835.6 177.4,679.2 173.3,676.7 169.6,674.1 166.2,671.3 163.0,668.4 160.3,665.4 157.8,662.3 155.7,659.1 154.0,655.8 152.7,652.5 151.7,649.2 151.2,645.8 151.0,642.4 151.2,639.0 151.7,635.6 152.7,632.2 154.0,628.9 155.7,625.6 157.8,622.5 160.3,619.4 163.0,616.4 166.2,613.5 169.6,610.7 173.3,608.1 177.4,605.6 448.3,449.2 452.6,446.9 457.1,444.7 461.9,442.7 466.9,440.9 472.1,439.3 477.5,437.9 483.0,436.7 488.7,435.7 494.4,434.9 500.2,434.4 506.1,434.0 512.0,433.9 517.9,434.0 523.8,434.4 529.6,434.9 535.3,435.7 541.0,436.7 546.5,437.9 551.9,439.3 557.1,440.9 562.1,442.7 566.9,444.7 571.4,446.9 575.7,449.2" fill="#8BD66E"/>
</svg>
